<svg xmlns="http://www.w3.org/2000/svg" xmlns:xlink="http://www.w3.org/1999/xlink" viewBox="0 0 345.6 415.13"><defs><style>.cls-1,.cls-10,.cls-11,.cls-12,.cls-13,.cls-14,.cls-15,.cls-16,.cls-17,.cls-18,.cls-19,.cls-20,.cls-21,.cls-22,.cls-23,.cls-24,.cls-25,.cls-26,.cls-27,.cls-28,.cls-29,.cls-30,.cls-31,.cls-32,.cls-33,.cls-34,.cls-35,.cls-36,.cls-37,.cls-38,.cls-39,.cls-40,.cls-41,.cls-42,.cls-43,.cls-44,.cls-45,.cls-46,.cls-47,.cls-48,.cls-49,.cls-5,.cls-50,.cls-51,.cls-52,.cls-53,.cls-54,.cls-55,.cls-56,.cls-57,.cls-58,.cls-59,.cls-6,.cls-60,.cls-61,.cls-62,.cls-63,.cls-64,.cls-65,.cls-66,.cls-67,.cls-68,.cls-69,.cls-7,.cls-70,.cls-71,.cls-72,.cls-73,.cls-74,.cls-75,.cls-76,.cls-77,.cls-78,.cls-79,.cls-8,.cls-80,.cls-81,.cls-82,.cls-83,.cls-84,.cls-85,.cls-86,.cls-87,.cls-88,.cls-89,.cls-9,.cls-90,.cls-91,.cls-92,.cls-93,.cls-94,.cls-95,.cls-96,.cls-97,.cls-98{fill:none;}.cls-2{fill:url(#linear-gradient);}.cls-3{fill:url(#linear-gradient-2);}.cls-4{clip-path:url(#clip-path);}.cls-10,.cls-11,.cls-12,.cls-13,.cls-14,.cls-15,.cls-16,.cls-17,.cls-18,.cls-19,.cls-20,.cls-21,.cls-22,.cls-23,.cls-24,.cls-25,.cls-26,.cls-27,.cls-28,.cls-29,.cls-30,.cls-31,.cls-32,.cls-33,.cls-34,.cls-35,.cls-36,.cls-37,.cls-38,.cls-39,.cls-40,.cls-41,.cls-42,.cls-43,.cls-44,.cls-45,.cls-46,.cls-47,.cls-48,.cls-49,.cls-5,.cls-50,.cls-51,.cls-52,.cls-53,.cls-54,.cls-55,.cls-56,.cls-57,.cls-58,.cls-59,.cls-6,.cls-60,.cls-61,.cls-62,.cls-63,.cls-64,.cls-65,.cls-66,.cls-67,.cls-68,.cls-69,.cls-7,.cls-70,.cls-71,.cls-72,.cls-73,.cls-74,.cls-75,.cls-76,.cls-77,.cls-78,.cls-79,.cls-8,.cls-80,.cls-81,.cls-82,.cls-83,.cls-84,.cls-85,.cls-86,.cls-87,.cls-88,.cls-89,.cls-9,.cls-90,.cls-91,.cls-92,.cls-93,.cls-94,.cls-95,.cls-96,.cls-97,.cls-98{stroke-miterlimit:10;}.cls-5{stroke-width:2px;stroke:url(#linear-gradient-3);}.cls-6{stroke-width:1.95px;stroke:url(#linear-gradient-4);}.cls-7{stroke-width:1.89px;stroke:url(#linear-gradient-5);}.cls-8{stroke-width:1.84px;stroke:url(#linear-gradient-6);}.cls-9{stroke-width:1.78px;stroke:url(#linear-gradient-7);}.cls-10{stroke-width:1.73px;stroke:url(#linear-gradient-8);}.cls-11{stroke-width:1.68px;stroke:url(#linear-gradient-9);}.cls-12{stroke-width:1.62px;stroke:url(#linear-gradient-10);}.cls-13{stroke-width:1.57px;stroke:url(#linear-gradient-11);}.cls-14{stroke-width:1.51px;stroke:url(#linear-gradient-12);}.cls-15{stroke-width:1.46px;stroke:url(#linear-gradient-13);}.cls-16{stroke-width:1.41px;stroke:url(#linear-gradient-14);}.cls-17{stroke-width:1.35px;stroke:url(#linear-gradient-15);}.cls-18{stroke-width:1.3px;stroke:url(#linear-gradient-16);}.cls-19{stroke-width:1.24px;stroke:url(#linear-gradient-17);}.cls-20{stroke-width:1.19px;stroke:url(#linear-gradient-18);}.cls-21{stroke-width:1.14px;stroke:url(#linear-gradient-19);}.cls-22{stroke-width:1.08px;stroke:url(#linear-gradient-20);}.cls-23{stroke-width:1.03px;stroke:url(#linear-gradient-21);}.cls-24{stroke-width:0.97px;stroke:url(#linear-gradient-22);}.cls-25{stroke-width:0.92px;stroke:url(#linear-gradient-23);}.cls-26{stroke-width:0.87px;stroke:url(#linear-gradient-24);}.cls-27{stroke-width:0.81px;stroke:url(#linear-gradient-25);}.cls-28{stroke-width:0.76px;stroke:url(#linear-gradient-26);}.cls-29{stroke-width:0.7px;stroke:url(#linear-gradient-27);}.cls-30{stroke-width:0.65px;stroke:url(#linear-gradient-28);}.cls-31{stroke-width:0.6px;stroke:url(#linear-gradient-29);}.cls-32{stroke-width:0.54px;stroke:url(#linear-gradient-30);}.cls-33{stroke-width:0.49px;stroke:url(#linear-gradient-31);}.cls-34{stroke-width:0.43px;stroke:url(#linear-gradient-32);}.cls-35{stroke-width:0.38px;stroke:url(#linear-gradient-33);}.cls-36,.cls-98{stroke-width:0.33px;}.cls-36{stroke:url(#linear-gradient-34);}.cls-37,.cls-97{stroke-width:0.34px;}.cls-37{stroke:url(#linear-gradient-35);}.cls-38{stroke-width:0.35px;stroke:url(#linear-gradient-36);}.cls-39{stroke-width:0.37px;stroke:url(#linear-gradient-37);}.cls-40{stroke-width:0.38px;stroke:url(#linear-gradient-38);}.cls-41,.cls-93{stroke-width:0.39px;}.cls-41{stroke:url(#linear-gradient-39);}.cls-42,.cls-92{stroke-width:0.41px;}.cls-42{stroke:url(#linear-gradient-40);}.cls-43{stroke-width:0.42px;stroke:url(#linear-gradient-41);}.cls-44{stroke-width:0.43px;stroke:url(#linear-gradient-42);}.cls-45,.cls-89{stroke-width:0.45px;}.cls-45{stroke:url(#linear-gradient-43);}.cls-46{stroke-width:0.46px;stroke:url(#linear-gradient-44);}.cls-47,.cls-87{stroke-width:0.48px;}.cls-47{stroke:url(#linear-gradient-45);}.cls-48,.cls-86{stroke-width:0.49px;}.cls-48{stroke:url(#linear-gradient-46);}.cls-49{stroke-width:0.5px;stroke:url(#linear-gradient-47);}.cls-50,.cls-84{stroke-width:0.52px;}.cls-50{stroke:url(#linear-gradient-48);}.cls-51,.cls-83{stroke-width:0.53px;}.cls-51{stroke:url(#linear-gradient-49);}.cls-52,.cls-82{stroke-width:0.54px;}.cls-52{stroke:url(#linear-gradient-50);}.cls-53{stroke-width:0.56px;stroke:url(#linear-gradient-51);}.cls-54{stroke-width:0.57px;stroke:url(#linear-gradient-52);}.cls-55,.cls-79{stroke-width:0.59px;}.cls-55{stroke:url(#linear-gradient-53);}.cls-56,.cls-78{stroke-width:0.6px;}.cls-56{stroke:url(#linear-gradient-54);}.cls-57,.cls-77{stroke-width:0.61px;}.cls-57{stroke:url(#linear-gradient-55);}.cls-58{stroke-width:0.63px;stroke:url(#linear-gradient-56);}.cls-59{stroke-width:0.64px;stroke:url(#linear-gradient-57);}.cls-60,.cls-74{stroke-width:0.65px;}.cls-60{stroke:url(#linear-gradient-58);}.cls-61{stroke-width:0.67px;stroke:url(#linear-gradient-59);}.cls-62,.cls-72{stroke-width:0.68px;}.cls-62{stroke:url(#linear-gradient-60);}.cls-63{stroke-width:0.7px;stroke:url(#linear-gradient-61);}.cls-64,.cls-70{stroke-width:0.71px;}.cls-64{stroke:url(#linear-gradient-62);}.cls-65{stroke-width:0.72px;stroke:url(#linear-gradient-63);}.cls-66,.cls-68{stroke-width:0.74px;}.cls-66{stroke:url(#linear-gradient-64);}.cls-67{stroke-width:0.75px;stroke:url(#linear-gradient-65);}.cls-68{stroke:url(#linear-gradient-66);}.cls-69{stroke-width:0.72px;stroke:url(#linear-gradient-67);}.cls-70{stroke:url(#linear-gradient-68);}.cls-71{stroke-width:0.7px;stroke:url(#linear-gradient-69);}.cls-72{stroke:url(#linear-gradient-70);}.cls-73{stroke-width:0.67px;stroke:url(#linear-gradient-71);}.cls-74{stroke:url(#linear-gradient-72);}.cls-75{stroke-width:0.64px;stroke:url(#linear-gradient-73);}.cls-76{stroke-width:0.63px;stroke:url(#linear-gradient-74);}.cls-77{stroke:url(#linear-gradient-75);}.cls-78{stroke:url(#linear-gradient-76);}.cls-79{stroke:url(#linear-gradient-77);}.cls-80{stroke-width:0.57px;stroke:url(#linear-gradient-78);}.cls-81{stroke-width:0.56px;stroke:url(#linear-gradient-79);}.cls-82{stroke:url(#linear-gradient-80);}.cls-83{stroke:url(#linear-gradient-81);}.cls-84{stroke:url(#linear-gradient-82);}.cls-85{stroke-width:0.5px;stroke:url(#linear-gradient-83);}.cls-86{stroke:url(#linear-gradient-84);}.cls-87{stroke:url(#linear-gradient-85);}.cls-88{stroke-width:0.46px;stroke:url(#linear-gradient-86);}.cls-89{stroke:url(#linear-gradient-87);}.cls-90{stroke-width:0.43px;stroke:url(#linear-gradient-88);}.cls-91{stroke-width:0.42px;stroke:url(#linear-gradient-89);}.cls-92{stroke:url(#linear-gradient-90);}.cls-93{stroke:url(#linear-gradient-91);}.cls-94{stroke-width:0.38px;stroke:url(#linear-gradient-92);}.cls-95{stroke-width:0.37px;stroke:url(#linear-gradient-93);}.cls-96{stroke-width:0.35px;stroke:url(#linear-gradient-94);}.cls-97{stroke:url(#linear-gradient-95);}.cls-98{stroke:url(#linear-gradient-96);}.cls-99{fill:url(#linear-gradient-97);}</style><linearGradient id="linear-gradient" x1="244.99" y1="132.19" x2="91.99" y2="192.62" gradientUnits="userSpaceOnUse"><stop offset="0" stop-color="#2563eb"/><stop offset="1" stop-color="#3b82f6"/></linearGradient><linearGradient id="linear-gradient-2" x1="303.62" y1="73.55" x2="241.9" y2="83.83" xlink:href="#linear-gradient"/><clipPath id="clip-path" transform="translate(0 43.41)"><path class="cls-1" d="M306.2,246.2a162.84,162.84,0,0,1-74.91,67.55,171,171,0,0,1,7.51-100.81c.88-1.38,1.75-2.76,2.57-4.18a91.39,91.39,0,0,0,7.57-16.92c.38-.65.72-1.39,1-2.07l0-.06a171.74,171.74,0,0,0-8.75-170.09A35.81,35.81,0,0,1,246.18,22a164.28,164.28,0,0,1,60,224.21Z"/></clipPath><linearGradient id="linear-gradient-3" x1="-78.21" y1="373.99" x2="190.29" y2="373.99" gradientTransform="matrix(0.99, -0.16, 0.16, 0.99, 103.44, -201.78)" gradientUnits="userSpaceOnUse"><stop offset="0.06" stop-color="#3b82f6"/><stop offset="0.23" stop-color="#2563eb"/><stop offset="1" stop-color="#3b82f6"/></linearGradient><linearGradient id="linear-gradient-4" x1="-75.52" y1="373.86" x2="186.45" y2="373.86" gradientTransform="matrix(0.99, -0.16, 0.16, 0.99, 103.44, -201.78)" gradientUnits="userSpaceOnUse"><stop offset="0.06" stop-color="#3a81f6"/><stop offset="0.23" stop-color="#2563eb"/><stop offset="0.4" stop-color="#2b6bed"/><stop offset="0.63" stop-color="#3173f1"/><stop offset="0.81" stop-color="#3579f3"/><stop offset="1" stop-color="#3b82f6"/></linearGradient><linearGradient id="linear-gradient-5" x1="-72.83" y1="373.59" x2="182.61" y2="373.59" gradientTransform="matrix(0.99, -0.16, 0.16, 0.99, 103.44, -201.78)" gradientUnits="userSpaceOnUse"><stop offset="0.06" stop-color="#3a80f5"/><stop offset="0.23" stop-color="#2563eb"/><stop offset="0.4" stop-color="#2b6cee"/><stop offset="0.63" stop-color="#3274f1"/><stop offset="0.81" stop-color="#3579f2"/><stop offset="1" stop-color="#3b82f6"/></linearGradient><linearGradient id="linear-gradient-6" x1="-70.14" y1="373.36" x2="178.83" y2="373.36" gradientTransform="matrix(0.99, -0.16, 0.16, 0.99, 103.44, -201.78)" gradientUnits="userSpaceOnUse"><stop offset="0.06" stop-color="#397ff5"/><stop offset="0.23" stop-color="#2563eb"/><stop offset="0.4" stop-color="#2c6cee"/><stop offset="0.63" stop-color="#3274f1"/><stop offset="0.81" stop-color="#3478f2"/><stop offset="1" stop-color="#3b82f6"/></linearGradient><linearGradient id="linear-gradient-7" x1="-67.45" y1="373.2" x2="175.02" y2="373.2" gradientTransform="matrix(0.99, -0.16, 0.16, 0.99, 103.44, -201.78)" gradientUnits="userSpaceOnUse"><stop offset="0.06" stop-color="#387ef5"/><stop offset="0.23" stop-color="#2563eb"/><stop offset="0.4" stop-color="#2c6dee"/><stop offset="0.63" stop-color="#3275f2"/><stop offset="0.81" stop-color="#3477f2"/><stop offset="1" stop-color="#3b82f6"/></linearGradient><linearGradient id="linear-gradient-8" x1="-64.76" y1="373.09" x2="171.22" y2="373.09" gradientTransform="matrix(0.99, -0.16, 0.16, 0.99, 103.44, -201.78)" gradientUnits="userSpaceOnUse"><stop offset="0.06" stop-color="#377df4"/><stop offset="0.23" stop-color="#2563eb"/><stop offset="0.4" stop-color="#2d6eee"/><stop offset="0.63" stop-color="#3375f2"/><stop offset="0.81" stop-color="#3376f2"/><stop offset="1" stop-color="#3b82f6"/></linearGradient><linearGradient id="linear-gradient-9" x1="-62.07" y1="373.02" x2="167.42" y2="373.02" gradientTransform="matrix(0.99, -0.16, 0.16, 0.99, 103.44, -201.78)" gradientUnits="userSpaceOnUse"><stop offset="0.06" stop-color="#377cf4"/><stop offset="0.23" stop-color="#2563eb"/><stop offset="0.4" stop-color="#2d6fef"/><stop offset="0.63" stop-color="#3376f2"/><stop offset="0.81" stop-color="#3376f1"/><stop offset="1" stop-color="#3b82f6"/></linearGradient><linearGradient id="linear-gradient-10" x1="-59.38" y1="373" x2="163.65" y2="373" gradientTransform="matrix(0.99, -0.16, 0.16, 0.99, 103.44, -201.78)" gradientUnits="userSpaceOnUse"><stop offset="0.06" stop-color="#367bf4"/><stop offset="0.23" stop-color="#2563eb"/><stop offset="0.4" stop-color="#2e6fef"/><stop offset="0.63" stop-color="#3376f2"/><stop offset="0.81" stop-color="#3275f1"/><stop offset="1" stop-color="#3b82f6"/></linearGradient><linearGradient id="linear-gradient-11" x1="-56.8" y1="373.02" x2="159.89" y2="373.02" gradientTransform="matrix(0.99, -0.16, 0.16, 0.99, 103.44, -201.78)" gradientUnits="userSpaceOnUse"><stop offset="0.06" stop-color="#357af3"/><stop offset="0.23" stop-color="#2563eb"/><stop offset="0.4" stop-color="#2e70ef"/><stop offset="0.63" stop-color="#3477f2"/><stop offset="0.81" stop-color="#3274f1"/><stop offset="1" stop-color="#3b82f6"/></linearGradient><linearGradient id="linear-gradient-12" x1="-54.21" y1="373.1" x2="156.17" y2="373.1" gradientTransform="matrix(0.99, -0.16, 0.16, 0.99, 103.44, -201.78)" gradientUnits="userSpaceOnUse"><stop offset="0.06" stop-color="#3579f3"/><stop offset="0.23" stop-color="#2563eb"/><stop offset="0.4" stop-color="#2f71f0"/><stop offset="0.63" stop-color="#3477f2"/><stop offset="0.81" stop-color="#3173f1"/><stop offset="1" stop-color="#3b82f6"/></linearGradient><linearGradient id="linear-gradient-13" x1="-51.62" y1="373.23" x2="152.5" y2="373.23" gradientTransform="matrix(0.99, -0.16, 0.16, 0.99, 103.44, -201.78)" gradientUnits="userSpaceOnUse"><stop offset="0.06" stop-color="#3478f2"/><stop offset="0.23" stop-color="#2563eb"/><stop offset="0.4" stop-color="#2f72f0"/><stop offset="0.63" stop-color="#3478f3"/><stop offset="0.81" stop-color="#3173f0"/><stop offset="1" stop-color="#3b82f6"/></linearGradient><linearGradient id="linear-gradient-14" x1="-49.02" y1="373.5" x2="151.11" y2="373.5" gradientTransform="matrix(0.99, -0.16, 0.16, 0.99, 103.44, -201.78)" gradientUnits="userSpaceOnUse"><stop offset="0.06" stop-color="#3377f2"/><stop offset="0.23" stop-color="#2563eb"/><stop offset="0.4" stop-color="#3073f0"/><stop offset="0.63" stop-color="#3578f3"/><stop offset="0.81" stop-color="#3072f0"/><stop offset="1" stop-color="#3b82f6"/></linearGradient><linearGradient id="linear-gradient-15" x1="-46.42" y1="374.23" x2="147.85" y2="374.23" gradientTransform="matrix(0.99, -0.16, 0.16, 0.99, 103.44, -201.78)" gradientUnits="userSpaceOnUse"><stop offset="0.06" stop-color="#3276f2"/><stop offset="0.23" stop-color="#2563eb"/><stop offset="0.4" stop-color="#3173f0"/><stop offset="0.63" stop-color="#3579f3"/><stop offset="0.81" stop-color="#2f71f0"/><stop offset="1" stop-color="#3b82f6"/></linearGradient><linearGradient id="linear-gradient-16" x1="-43.81" y1="374.96" x2="144.68" y2="374.96" gradientTransform="matrix(0.99, -0.16, 0.16, 0.99, 103.44, -201.78)" gradientUnits="userSpaceOnUse"><stop offset="0.06" stop-color="#3275f1"/><stop offset="0.23" stop-color="#2563eb"/><stop offset="0.4" stop-color="#3174f1"/><stop offset="0.63" stop-color="#3579f3"/><stop offset="0.81" stop-color="#2f70f0"/><stop offset="1" stop-color="#3b82f6"/></linearGradient><linearGradient id="linear-gradient-17" x1="-41.2" y1="375.69" x2="141.62" y2="375.69" gradientTransform="matrix(0.99, -0.16, 0.16, 0.99, 103.44, -201.78)" gradientUnits="userSpaceOnUse"><stop offset="0.06" stop-color="#3174f1"/><stop offset="0.23" stop-color="#2563eb"/><stop offset="0.4" stop-color="#3275f1"/><stop offset="0.63" stop-color="#367af3"/><stop offset="0.81" stop-color="#2e70ef"/><stop offset="1" stop-color="#3b82f6"/></linearGradient><linearGradient id="linear-gradient-18" x1="-38.59" y1="376.42" x2="138.7" y2="376.42" gradientTransform="matrix(0.99, -0.16, 0.16, 0.99, 103.44, -201.78)" gradientUnits="userSpaceOnUse"><stop offset="0.06" stop-color="#3073f1"/><stop offset="0.23" stop-color="#2563eb"/><stop offset="0.4" stop-color="#3276f1"/><stop offset="0.63" stop-color="#367af3"/><stop offset="0.81" stop-color="#2e6fef"/><stop offset="1" stop-color="#3b82f6"/></linearGradient><linearGradient id="linear-gradient-19" x1="-35.97" y1="377.15" x2="135.94" y2="377.15" gradientTransform="matrix(0.99, -0.16, 0.16, 0.99, 103.44, -201.78)" gradientUnits="userSpaceOnUse"><stop offset="0.06" stop-color="#3072f0"/><stop offset="0.23" stop-color="#2563eb"/><stop offset="0.4" stop-color="#3376f2"/><stop offset="0.63" stop-color="#367bf4"/><stop offset="0.81" stop-color="#2d6eef"/><stop offset="1" stop-color="#3b82f6"/></linearGradient><linearGradient id="linear-gradient-20" x1="-33.34" y1="377.87" x2="135.83" y2="377.87" gradientTransform="matrix(0.99, -0.16, 0.16, 0.99, 103.44, -201.78)" gradientUnits="userSpaceOnUse"><stop offset="0.06" stop-color="#2f71f0"/><stop offset="0.23" stop-color="#2563eb"/><stop offset="0.4" stop-color="#3377f2"/><stop offset="0.63" stop-color="#367bf4"/><stop offset="0.81" stop-color="#2d6def"/><stop offset="1" stop-color="#3b82f6"/></linearGradient><linearGradient id="linear-gradient-21" x1="-30.71" y1="378.58" x2="136.61" y2="378.58" gradientTransform="matrix(0.99, -0.16, 0.16, 0.99, 103.44, -201.78)" gradientUnits="userSpaceOnUse"><stop offset="0.06" stop-color="#2e70f0"/><stop offset="0.23" stop-color="#2563eb"/><stop offset="0.4" stop-color="#3478f2"/><stop offset="0.63" stop-color="#377cf4"/><stop offset="0.81" stop-color="#2c6dee"/><stop offset="1" stop-color="#3b82f6"/></linearGradient><linearGradient id="linear-gradient-22" x1="-28.08" y1="379.28" x2="137.92" y2="379.28" gradientTransform="matrix(0.99, -0.16, 0.16, 0.99, 103.44, -201.78)" gradientUnits="userSpaceOnUse"><stop offset="0.06" stop-color="#2e6fef"/><stop offset="0.23" stop-color="#2563eb"/><stop offset="0.4" stop-color="#3479f3"/><stop offset="0.63" stop-color="#377cf4"/><stop offset="0.81" stop-color="#2c6cee"/><stop offset="1" stop-color="#3b82f6"/></linearGradient><linearGradient id="linear-gradient-23" x1="-25.44" y1="379.97" x2="139.65" y2="379.97" gradientTransform="matrix(0.99, -0.16, 0.16, 0.99, 103.44, -201.78)" gradientUnits="userSpaceOnUse"><stop offset="0.06" stop-color="#2d6eef"/><stop offset="0.23" stop-color="#2563eb"/><stop offset="0.4" stop-color="#3579f3"/><stop offset="0.63" stop-color="#377df4"/><stop offset="0.81" stop-color="#2b6bee"/><stop offset="1" stop-color="#3b82f6"/></linearGradient><linearGradient id="linear-gradient-24" x1="-22.8" y1="380.66" x2="141.68" y2="380.66" gradientTransform="matrix(0.99, -0.16, 0.16, 0.99, 103.44, -201.78)" gradientUnits="userSpaceOnUse"><stop offset="0.06" stop-color="#2c6def"/><stop offset="0.23" stop-color="#2563eb"/><stop offset="0.4" stop-color="#367af3"/><stop offset="0.63" stop-color="#387df4"/><stop offset="0.81" stop-color="#2a6aee"/><stop offset="1" stop-color="#3b82f6"/></linearGradient><linearGradient id="linear-gradient-25" x1="-20.16" y1="381.34" x2="143.95" y2="381.34" gradientTransform="matrix(0.99, -0.16, 0.16, 0.99, 103.44, -201.78)" gradientUnits="userSpaceOnUse"><stop offset="0.06" stop-color="#2b6cee"/><stop offset="0.23" stop-color="#2563eb"/><stop offset="0.4" stop-color="#367bf3"/><stop offset="0.63" stop-color="#387ef5"/><stop offset="0.81" stop-color="#2a6aed"/><stop offset="1" stop-color="#3b82f6"/></linearGradient><linearGradient id="linear-gradient-26" x1="-17.52" y1="382.02" x2="145.92" y2="382.02" gradientTransform="matrix(0.99, -0.16, 0.16, 0.99, 103.44, -201.78)" gradientUnits="userSpaceOnUse"><stop offset="0.06" stop-color="#2b6bee"/><stop offset="0.23" stop-color="#2563eb"/><stop offset="0.4" stop-color="#377cf4"/><stop offset="0.63" stop-color="#387ef5"/><stop offset="0.81" stop-color="#2969ed"/><stop offset="1" stop-color="#3b82f6"/></linearGradient><linearGradient id="linear-gradient-27" x1="-14.87" y1="382.69" x2="148.64" y2="382.69" gradientTransform="matrix(0.99, -0.16, 0.16, 0.99, 103.44, -201.78)" gradientUnits="userSpaceOnUse"><stop offset="0.06" stop-color="#2a6aed"/><stop offset="0.23" stop-color="#2563eb"/><stop offset="0.4" stop-color="#377df4"/><stop offset="0.63" stop-color="#397ff5"/><stop offset="0.81" stop-color="#2968ed"/><stop offset="1" stop-color="#3b82f6"/></linearGradient><linearGradient id="linear-gradient-28" x1="-12.23" y1="383.36" x2="151.42" y2="383.36" gradientTransform="matrix(0.99, -0.16, 0.16, 0.99, 103.44, -201.78)" gradientUnits="userSpaceOnUse"><stop offset="0.06" stop-color="#2969ed"/><stop offset="0.23" stop-color="#2563eb"/><stop offset="0.4" stop-color="#387df4"/><stop offset="0.63" stop-color="#397ff5"/><stop offset="0.81" stop-color="#2867ed"/><stop offset="1" stop-color="#3b82f6"/></linearGradient><linearGradient id="linear-gradient-29" x1="-9.58" y1="384.02" x2="154.24" y2="384.02" gradientTransform="matrix(0.99, -0.16, 0.16, 0.99, 103.44, -201.78)" gradientUnits="userSpaceOnUse"><stop offset="0.06" stop-color="#2968ed"/><stop offset="0.23" stop-color="#2563eb"/><stop offset="0.4" stop-color="#387ef5"/><stop offset="0.63" stop-color="#3980f5"/><stop offset="0.81" stop-color="#2867ec"/><stop offset="1" stop-color="#3b82f6"/></linearGradient><linearGradient id="linear-gradient-30" x1="-6.93" y1="384.69" x2="157.09" y2="384.69" gradientTransform="matrix(0.99, -0.16, 0.16, 0.99, 103.44, -201.78)" gradientUnits="userSpaceOnUse"><stop offset="0.06" stop-color="#2867ec"/><stop offset="0.23" stop-color="#2563eb"/><stop offset="0.4" stop-color="#397ff5"/><stop offset="0.63" stop-color="#3a80f5"/><stop offset="0.81" stop-color="#2766ec"/><stop offset="1" stop-color="#3b82f6"/></linearGradient><linearGradient id="linear-gradient-31" x1="-4.28" y1="385.35" x2="159.98" y2="385.35" gradientTransform="matrix(0.99, -0.16, 0.16, 0.99, 103.44, -201.78)" gradientUnits="userSpaceOnUse"><stop offset="0.06" stop-color="#2766ec"/><stop offset="0.23" stop-color="#2563eb"/><stop offset="0.4" stop-color="#3980f5"/><stop offset="0.63" stop-color="#3a81f6"/><stop offset="0.81" stop-color="#2765ec"/><stop offset="1" stop-color="#3b82f6"/></linearGradient><linearGradient id="linear-gradient-32" x1="-1.62" y1="386" x2="162.9" y2="386" gradientTransform="matrix(0.99, -0.16, 0.16, 0.99, 103.44, -201.78)" gradientUnits="userSpaceOnUse"><stop offset="0.06" stop-color="#2665ec"/><stop offset="0.23" stop-color="#2563eb"/><stop offset="0.4" stop-color="#3a80f5"/><stop offset="0.63" stop-color="#3a81f6"/><stop offset="0.81" stop-color="#2664ec"/><stop offset="1" stop-color="#3b82f6"/></linearGradient><linearGradient id="linear-gradient-33" x1="1.03" y1="386.66" x2="165.83" y2="386.66" gradientTransform="matrix(0.99, -0.16, 0.16, 0.99, 103.44, -201.78)" gradientUnits="userSpaceOnUse"><stop offset="0.06" stop-color="#2664eb"/><stop offset="0.23" stop-color="#2563eb"/><stop offset="0.4" stop-color="#3a81f6"/><stop offset="0.63" stop-color="#3b82f6"/><stop offset="0.81" stop-color="#2664eb"/><stop offset="1" stop-color="#3b82f6"/></linearGradient><linearGradient id="linear-gradient-34" x1="3.16" y1="387.31" x2="168.79" y2="387.31" gradientTransform="matrix(0.99, -0.16, 0.16, 0.99, 103.44, -201.78)" gradientUnits="userSpaceOnUse"><stop offset="0.06" stop-color="#2563eb"/><stop offset="0.23" stop-color="#2563eb"/><stop offset="0.4" stop-color="#3b82f6"/><stop offset="0.63" stop-color="#3b82f6"/><stop offset="0.81" stop-color="#2563eb"/><stop offset="1" stop-color="#3b82f6"/></linearGradient><linearGradient id="linear-gradient-35" x1="3.52" y1="386.31" x2="165.41" y2="386.31" xlink:href="#linear-gradient-34"/><linearGradient id="linear-gradient-36" x1="3.35" y1="385.26" x2="162.04" y2="385.26" xlink:href="#linear-gradient-34"/><linearGradient id="linear-gradient-37" x1="3.18" y1="384.15" x2="158.68" y2="384.15" xlink:href="#linear-gradient-34"/><linearGradient id="linear-gradient-38" x1="3.01" y1="382.97" x2="155.33" y2="382.97" xlink:href="#linear-gradient-34"/><linearGradient id="linear-gradient-39" x1="2.84" y1="381.72" x2="152" y2="381.72" xlink:href="#linear-gradient-34"/><linearGradient id="linear-gradient-40" x1="2.67" y1="380.42" x2="148.69" y2="380.42" xlink:href="#linear-gradient-34"/><linearGradient id="linear-gradient-41" x1="2.5" y1="379.13" x2="145.4" y2="379.13" xlink:href="#linear-gradient-34"/><linearGradient id="linear-gradient-42" x1="2.34" y1="377.83" x2="142.14" y2="377.83" xlink:href="#linear-gradient-34"/><linearGradient id="linear-gradient-43" x1="2.17" y1="376.54" x2="138.9" y2="376.54" xlink:href="#linear-gradient-34"/><linearGradient id="linear-gradient-44" x1="2.01" y1="375.25" x2="135.71" y2="375.25" xlink:href="#linear-gradient-34"/><linearGradient id="linear-gradient-45" x1="1.84" y1="373.96" x2="132.56" y2="373.96" xlink:href="#linear-gradient-34"/><linearGradient id="linear-gradient-46" x1="1.68" y1="372.68" x2="129.47" y2="372.68" xlink:href="#linear-gradient-34"/><linearGradient id="linear-gradient-47" x1="1.52" y1="371.4" x2="126.44" y2="371.4" xlink:href="#linear-gradient-34"/><linearGradient id="linear-gradient-48" x1="1.36" y1="370.13" x2="123.49" y2="370.13" xlink:href="#linear-gradient-34"/><linearGradient id="linear-gradient-49" x1="1.21" y1="368.86" x2="120.63" y2="368.86" xlink:href="#linear-gradient-34"/><linearGradient id="linear-gradient-50" x1="1.05" y1="367.6" x2="117.88" y2="367.6" xlink:href="#linear-gradient-34"/><linearGradient id="linear-gradient-51" x1="0.9" y1="366.33" x2="115.26" y2="366.33" xlink:href="#linear-gradient-34"/><linearGradient id="linear-gradient-52" x1="0.76" y1="365.01" x2="112.79" y2="365.01" xlink:href="#linear-gradient-34"/><linearGradient id="linear-gradient-53" x1="0.61" y1="363.7" x2="110.47" y2="363.7" xlink:href="#linear-gradient-34"/><linearGradient id="linear-gradient-54" x1="0.47" y1="362.92" x2="108.32" y2="362.92" xlink:href="#linear-gradient-34"/><linearGradient id="linear-gradient-55" x1="0.33" y1="362.45" x2="106.35" y2="362.45" xlink:href="#linear-gradient-34"/><linearGradient id="linear-gradient-56" x1="0.15" y1="362.1" x2="104.56" y2="362.1" xlink:href="#linear-gradient-34"/><linearGradient id="linear-gradient-57" x1="-0.05" y1="361.85" x2="102.96" y2="361.85" xlink:href="#linear-gradient-34"/><linearGradient id="linear-gradient-58" x1="-0.24" y1="361.69" x2="101.55" y2="361.69" xlink:href="#linear-gradient-34"/><linearGradient id="linear-gradient-59" x1="-0.44" y1="361.59" x2="100.34" y2="361.59" xlink:href="#linear-gradient-34"/><linearGradient id="linear-gradient-60" x1="-0.64" y1="361.55" x2="99.39" y2="361.55" xlink:href="#linear-gradient-34"/><linearGradient id="linear-gradient-61" x1="-0.83" y1="361.57" x2="103.08" y2="361.57" xlink:href="#linear-gradient-34"/><linearGradient id="linear-gradient-62" x1="-1.02" y1="361.63" x2="106.77" y2="361.63" xlink:href="#linear-gradient-34"/><linearGradient id="linear-gradient-63" x1="-1.21" y1="361.74" x2="110.46" y2="361.74" xlink:href="#linear-gradient-34"/><linearGradient id="linear-gradient-64" x1="-1.4" y1="361.89" x2="114.15" y2="361.89" xlink:href="#linear-gradient-34"/><linearGradient id="linear-gradient-65" x1="-1.59" y1="362.07" x2="117.84" y2="362.07" xlink:href="#linear-gradient-34"/><linearGradient id="linear-gradient-66" x1="-2.74" y1="360.61" x2="117.04" y2="360.61" xlink:href="#linear-gradient-34"/><linearGradient id="linear-gradient-67" x1="-3.89" y1="359.16" x2="116.24" y2="359.16" xlink:href="#linear-gradient-34"/><linearGradient id="linear-gradient-68" x1="-5.05" y1="357.73" x2="115.44" y2="357.73" xlink:href="#linear-gradient-34"/><linearGradient id="linear-gradient-69" x1="-6.2" y1="356.33" x2="114.64" y2="356.33" xlink:href="#linear-gradient-34"/><linearGradient id="linear-gradient-70" x1="-7.35" y1="354.94" x2="113.84" y2="354.94" xlink:href="#linear-gradient-34"/><linearGradient id="linear-gradient-71" x1="-8.51" y1="353.58" x2="113.04" y2="353.58" xlink:href="#linear-gradient-34"/><linearGradient id="linear-gradient-72" x1="-9.66" y1="352.24" x2="114.04" y2="352.24" xlink:href="#linear-gradient-34"/><linearGradient id="linear-gradient-73" x1="-10.81" y1="350.92" x2="116.37" y2="350.92" xlink:href="#linear-gradient-34"/><linearGradient id="linear-gradient-74" x1="-11.97" y1="349.62" x2="118.69" y2="349.62" xlink:href="#linear-gradient-34"/><linearGradient id="linear-gradient-75" x1="-13.12" y1="348.34" x2="121.01" y2="348.34" xlink:href="#linear-gradient-34"/><linearGradient id="linear-gradient-76" x1="-14.27" y1="347.08" x2="123.33" y2="347.08" xlink:href="#linear-gradient-34"/><linearGradient id="linear-gradient-77" x1="-15.43" y1="345.84" x2="125.66" y2="345.84" xlink:href="#linear-gradient-34"/><linearGradient id="linear-gradient-78" x1="-16.58" y1="344.62" x2="127.99" y2="344.62" xlink:href="#linear-gradient-34"/><linearGradient id="linear-gradient-79" x1="-17.73" y1="343.42" x2="130.33" y2="343.42" xlink:href="#linear-gradient-34"/><linearGradient id="linear-gradient-80" x1="-18.89" y1="342.24" x2="132.69" y2="342.24" xlink:href="#linear-gradient-34"/><linearGradient id="linear-gradient-81" x1="-20.04" y1="341.09" x2="135.06" y2="341.09" xlink:href="#linear-gradient-34"/><linearGradient id="linear-gradient-82" x1="-21.2" y1="339.95" x2="137.45" y2="339.95" xlink:href="#linear-gradient-34"/><linearGradient id="linear-gradient-83" x1="-22.35" y1="338.83" x2="139.87" y2="338.83" xlink:href="#linear-gradient-34"/><linearGradient id="linear-gradient-84" x1="-23.5" y1="337.73" x2="142.31" y2="337.73" xlink:href="#linear-gradient-34"/><linearGradient id="linear-gradient-85" x1="-24.66" y1="336.65" x2="144.78" y2="336.65" xlink:href="#linear-gradient-34"/><linearGradient id="linear-gradient-86" x1="-25.81" y1="335.57" x2="147.29" y2="335.57" xlink:href="#linear-gradient-34"/><linearGradient id="linear-gradient-87" x1="-26.97" y1="334.51" x2="149.84" y2="334.51" xlink:href="#linear-gradient-34"/><linearGradient id="linear-gradient-88" x1="-28.12" y1="333.47" x2="152.43" y2="333.47" xlink:href="#linear-gradient-34"/><linearGradient id="linear-gradient-89" x1="-29.28" y1="332.45" x2="155.07" y2="332.45" xlink:href="#linear-gradient-34"/><linearGradient id="linear-gradient-90" x1="-30.43" y1="331.46" x2="157.76" y2="331.46" xlink:href="#linear-gradient-34"/><linearGradient id="linear-gradient-91" x1="-31.59" y1="330.49" x2="160.5" y2="330.49" xlink:href="#linear-gradient-34"/><linearGradient id="linear-gradient-92" x1="-32.74" y1="329.56" x2="163.3" y2="329.56" xlink:href="#linear-gradient-34"/><linearGradient id="linear-gradient-93" x1="-33.9" y1="328.66" x2="166.14" y2="328.66" xlink:href="#linear-gradient-34"/><linearGradient id="linear-gradient-94" x1="-35.06" y1="327.8" x2="169.03" y2="327.8" xlink:href="#linear-gradient-34"/><linearGradient id="linear-gradient-95" x1="-36.21" y1="326.99" x2="171.96" y2="326.99" xlink:href="#linear-gradient-34"/><linearGradient id="linear-gradient-96" x1="-37.37" y1="326.23" x2="174.94" y2="326.23" xlink:href="#linear-gradient-34"/><linearGradient id="linear-gradient-97" x1="305.45" y1="246.6" x2="306.45" y2="246.6" gradientUnits="userSpaceOnUse"><stop offset="0" stop-color="#06b6d4"/><stop offset="1" stop-color="#22d3ee"/></linearGradient></defs><g id="Layer_2" data-name="Layer 2"><g id="Layer_1-2" data-name="Layer 1"><path class="cls-2" d="M250,189.77l0-.06a171.74,171.74,0,0,0-8.75-170.09v-.31A163.08,163.08,0,0,0,164.12,0C73.62,0,0,73.64,0,164.13S73.62,328.24,164.12,328.24a163.22,163.22,0,0,0,67.15-14.37l0-.12A171,171,0,0,1,238.79,213a88.74,88.74,0,1,1,10.2-21.2C249.35,191.13,249.67,190.42,250,189.77Z" transform="translate(0 43.41)"/><path class="cls-3" d="M241.26,19.62A171.81,171.81,0,0,1,255,179c-.7-3.27-1.29-6.56-1.79-9.89.07-1.64.14-3.27.14-4.9a90.91,90.91,0,0,0-1.91-18.45c0-.74-.07-1.56-.13-2.31v-.07A171.77,171.77,0,0,0,158.67.41,36.29,36.29,0,0,1,164.11,0a163.25,163.25,0,0,1,77,19.22Z" transform="translate(0 43.41)"/><g class="cls-4"><path class="cls-5" d="M193.31-43.41c0,11.14,1.7,27.77,13.1,38.87,23.28,22.65,60.08-3.84,91.82,10.4,49.86,22.37,51.78,129.28,41.14,192-7.35,43.36-16.51,97.84-65.14,136.29-64.93,51.34-146.81,32.48-158.75,29.52" transform="translate(0 43.41)"/><path class="cls-6" d="M118.19,363.93c11.79,2.28,91.5,19.81,154.21-31.21,47.23-38.41,55.48-91.88,63-134.61,10.67-61.44,9.24-164.34-38-187.16C267.59-3.47,232.52,20.44,209.83-3c-11.72-12.1-15.66-29.37-18.32-39.35" transform="translate(0 43.41)"/><path class="cls-7" d="M120.9,364.19c11.64,1.6,89.17,17.8,149.68-32.89,45.83-38.39,53.15-90.84,60.82-132.94,10.72-60.17,9.75-159-34.8-182.32-27.93-14.6-61.21,6.67-83.34-17.44-12-13.13-18.19-31-23.55-39.83" transform="translate(0 43.41)"/><path class="cls-8" d="M123.61,364.44c11.5.94,86.84,15.78,145.14-34.57,44.43-38.37,50.95-89.77,58.66-131.26,10.94-58.87,10.22-153.75-31.63-177.48-26.06-14.79-57.49,3.79-79.1-21C204.31-14,196-32.48,187.91-40.14" transform="translate(0 43.41)"/><path class="cls-9" d="M126.32,364.7c11.35.26,84.51,13.74,140.6-36.25,43-38.37,48.67-88.72,56.5-129.59,11-57.59,10.65-148.46-28.45-172.65-24.23-15-53.75.89-74.86-24.47-12.68-15.23-23.25-34.29-34-40.8" transform="translate(0 43.41)"/><path class="cls-10" d="M129,365c11.21-.42,82.18,11.69,136.06-37.94,41.66-38.36,46.39-87.66,54.34-127.91,11.14-56.3,11-143.19-25.28-167.81-22.42-15.2-50-2.05-70.62-28C210.55-13,197.76-32.62,184.31-38" transform="translate(0 43.41)"/><path class="cls-11" d="M131.74,365.22c11.06-1.1,79.85,9.63,131.53-39.62,40.26-38.37,44.09-86.61,52.18-126.24,11.22-55,11.37-137.94-22.11-163-20.66-15.45-46.17-5-66.38-31.51-13.28-17.39-28.3-37.57-44.45-41.76" transform="translate(0 43.41)"/><path class="cls-12" d="M134.44,365.48c10.93-1.78,77.53,7.55,127-41.31,38.87-38.39,41.81-85.56,50-124.56,11.31-53.74,11.67-132.72-18.94-158.13-18.93-15.72-42.34-8-62.14-35C216.82-12,199.56-32.76,180.71-35.79" transform="translate(0 43.41)"/><path class="cls-13" d="M137.15,365.73c10.78-2.45,75.19,5.47,122.46-43,37.48-38.42,39.52-84.51,47.86-122.89,11.4-52.46,11.93-127.56-15.76-153.3-17.25-16-38.49-11-57.91-38.53C220-11.58,200.46-32.83,178.91-34.71" transform="translate(0 43.41)"/><path class="cls-14" d="M139.86,366c10.63-3.13,72.84,3.36,117.92-44.67,36.1-38.45,37.23-83.45,45.7-121.21C315,148.94,315.63,77.64,290.89,51.65c-15.61-16.39-34.62-14.06-53.66-42-14.1-20.73-35.87-42.5-60.12-43.22" transform="translate(0 43.41)"/><path class="cls-15" d="M142.57,366.25c10.49-3.8,70.49,1.24,113.39-46.35,34.7-38.51,34.93-82.4,43.53-119.54,11.57-49.89,12.36-117.47-9.42-143.62-14-16.83-30.73-17.1-49.42-45.57C226.3-10.69,202.26-33,175.32-32.53" transform="translate(0 43.41)"/><path class="cls-16" d="M145.28,366.51c10.34-4.48,68.14-.9,108.85-48,33.31-38.56,32.64-81.34,41.38-117.86C307.14,152,312.44,84.24,289.26,61.83c-9.14-19.27-26.83-20.16-45.18-49.09-14.59-23-40.93-45.78-70.56-44.18" transform="translate(0 43.41)"/><path class="cls-17" d="M148,366.76c10.2-5.15,65.77-3.05,104.31-49.71,31.91-38.64,30.34-80.29,39.22-116.19,11.71-47.33,17.68-111.53-3.08-134-7.08-19.72-22.91-23.22-40.94-52.6-14.81-24.14-43.45-47.42-75.78-44.67" transform="translate(0 43.41)"/><path class="cls-18" d="M150.7,367c10.05-5.83,63.4-5.22,99.78-51.4,30.5-38.72,28-79.23,37-114.51C299.31,155.06,306,94.42,287.63,72c-5-20.18-19-26.29-36.7-56.12-15-25.29-46-49.06-81-45.15" transform="translate(0 43.41)"/><path class="cls-19" d="M153.41,367.28c9.9-6.51,61-7.42,95.24-53.08,29.09-38.83,25.73-78.19,34.89-112.83,11.84-44.78,19.18-101.86,3.27-124.28-3-20.64-15-29.37-32.46-59.63C239.12-9,205.85-33.25,168.12-28.18" transform="translate(0 43.41)"/><path class="cls-20" d="M156.12,367.54c9.76-7.19,58.61-9.63,90.7-54.77,27.68-38.94,23.43-77.13,32.73-111.15,11.9-43.5,19.93-97,6.45-119.44-.92-21.1-11.09-32.45-28.22-63.15-15.42-27.62-51-52.35-91.46-46.13" transform="translate(0 43.41)"/><path class="cls-21" d="M158.82,367.8c9.62-7.86,56.21-11.86,86.17-56.45,26.25-39.07,21.12-76.08,30.58-109.48,11.95-42.22,20.67-92.17,9.61-114.61,1.14-21.55-7.12-35.53-24-66.66-15.59-28.79-53.55-54-96.68-46.61" transform="translate(0 43.41)"/><path class="cls-22" d="M161.53,368.05c9.48-8.53,53.77-14.1,81.64-58.13,24.81-39.21,18.8-75,28.41-107.8,12-40.94,21.42-87.33,12.78-109.77,3.2-22-3.14-38.62-19.74-70.18-15.75-30-56.08-55.63-101.9-47.09" transform="translate(0 43.41)"/><path class="cls-23" d="M164.24,368.31c9.33-9.21,51.32-16.36,77.1-59.82,23.35-39.37,16.48-74,26.25-106.12,12.05-39.66,22.17-82.49,16-104.93,5.25-22.47.84-41.71-15.5-73.7C252.14-7.4,209.44-33.53,160.92-23.83" transform="translate(0 43.41)"/><path class="cls-24" d="M167,368.57c9.19-9.89,48.85-18.65,72.56-61.5,21.88-39.54,14.17-72.92,24.09-104.45,12.09-38.38,22.92-77.65,19.13-100.09,7.31-22.93,4.84-44.81-11.26-77.22S210.34-33.6,159.12-22.75" transform="translate(0 43.41)"/><path class="cls-25" d="M169.66,368.83c9-10.57,46.35-20.95,68-63.19,20.39-39.73,11.84-71.87,21.94-102.77,12.11-37.11,23.66-72.81,22.3-95.26,9.36-23.38,8.83-47.89-7-80.73-16.18-33.5-63.66-60.55-117.58-48.54" transform="translate(0 43.41)"/><path class="cls-26" d="M172.37,369.08c8.89-11.24,43.82-23.25,63.49-64.86,18.86-39.93,9.51-70.83,19.77-101.1,12.14-35.84,24.41-68,25.47-90.42,11.42-23.84,12.84-51-2.78-84.24-16.3-34.7-66.18-62.2-122.8-49" transform="translate(0 43.41)"/><path class="cls-27" d="M175.08,369.34c8.75-11.92,41.27-25.57,58.95-66.55,17.32-40.14,7.17-69.78,17.61-99.42,12.16-34.57,25.16-63.12,28.65-85.58,13.47-24.3,16.85-54.09,1.46-87.76C265.34-5.86,213-33.81,153.72-19.48" transform="translate(0 43.41)"/><path class="cls-28" d="M177.79,369.6c8.6-12.59,38.69-27.91,54.41-68.23s4.84-68.74,15.45-97.75c12.18-33.3,22.59-59.43,31.82-80.74,11.62-26.82,20.88-57.18,5.7-91.28-16.5-37.09-71.24-65.48-133.25-50" transform="translate(0 43.41)"/><path class="cls-29" d="M180.5,369.86c8.46-13.27,36.07-30.25,49.87-69.92,14.13-40.59,2.49-67.69,13.29-96.07,12.19-32,23.88-54.68,35-75.91,14.25-27.23,24.9-60.27,9.93-94.79C272-5.11,214.83-33.95,150.12-17.31" transform="translate(0 43.41)"/><path class="cls-30" d="M183.2,370.12c8.32-13.95,33.43-32.58,45.35-71.6,12.47-40.82.13-66.66,11.13-94.4,12.19-30.77,25.14-49.83,38.16-71.07C294.73,105.5,306.77,69.69,292,34.74c-16.67-39.48-76.29-68.76-143.7-51" transform="translate(0 43.41)"/><path class="cls-31" d="M185.91,370.37c8.18-14.62,30.74-34.91,40.81-73.28,10.77-41-2.23-65.62,9-92.72,12.18-29.51,26.37-44.9,41.33-66.23,19.51-27.8,33-66.46,18.42-101.83-16.73-40.68-78.81-70.4-148.92-51.44" transform="translate(0 43.41)"/><path class="cls-32" d="M188.62,370.63c8-15.3,28-37.24,36.27-75,9-41.28-4.59-64.59,6.81-91.05,12.17-28.26,27.55-39.91,44.51-61.39,22.09-28,37-69.55,22.66-105.35C282.08-4,217.53-34.16,144.72-14" transform="translate(0 43.41)"/><path class="cls-33" d="M191.33,370.89c7.88-16,25.27-39.55,31.73-76.65,7.23-41.49-7-63.56,4.65-89.37,12.16-27,28.69-34.87,47.68-56.56,24.63-28.12,41.06-72.63,26.9-108.85C285.46-3.63,218.43-34.23,142.92-13" transform="translate(0 43.41)"/><path class="cls-34" d="M194,371.15c7.74-16.65,22.48-41.84,27.2-78.33,5.38-41.7-9.36-62.55,2.48-87.7,12.13-25.77,29.8-29.79,50.86-51.72,27.11-28.23,45.1-75.72,31.14-112.37-16.88-44.3-86.39-75.33-164.6-52.9" transform="translate(0 43.41)"/><path class="cls-35" d="M196.75,371.41c7.59-17.33,19.66-44.11,22.66-80,3.49-41.87-11.75-61.54.33-86s30.85-24.68,54-46.88c29.57-28.33,49.16-78.81,35.38-115.89-16.9-45.5-88.92-77-169.82-53.39" transform="translate(0 43.41)"/><path class="cls-36" d="M199.46,371.66A236.26,236.26,0,0,0,217.58,290c1.55-42-14.16-60.54-1.83-84.35,12.05-23.3,31.88-19.55,57.2-42,32-28.42,53.21-81.9,39.62-119.41-16.93-46.71-91.45-78.61-175-53.87" transform="translate(0 43.41)"/><path class="cls-37" d="M199,369.62c7.48-17.22,17.61-43.94,19.52-78.5,2.25-41-12.88-59.81-.92-83.64,8-16,19.56-19.53,33.77-27.26a101.42,101.42,0,0,0,21.4-15.35C303.46,136.14,323,83.44,309.37,46.21,303.31,29.7,290.3,14.92,272.43,3.76,240.2-16.38,191.9-24.76,141.09-10.78" transform="translate(0 43.41)"/><path class="cls-38" d="M198.46,367.58c7.52-16.43,18.41-41.55,20.91-75.3,3-39.88-11.59-59.09,0-82.95,7.77-16.12,19-19.84,32.59-27.59a96.5,96.5,0,0,0,20.54-15.58c29.51-29.06,47.39-81,33.67-117.91C300.07,31.85,287.36,17,270,5.69c-31.13-20.37-77.63-29.58-125.39-17.54" transform="translate(0 43.41)"/><path class="cls-39" d="M198,365.54c7.55-15.64,19.19-39.15,22.29-72.11,3.66-38.79-10.25-58.33.92-82.24,7.57-16.19,18.4-20.17,31.42-27.93a93.2,93.2,0,0,0,19.68-15.8C300.57,138,316.76,87,303,50.3,296.83,34,284.42,19.14,267.64,7.62,237.63-13,192.92-23,148.22-12.93" transform="translate(0 43.41)"/><path class="cls-40" d="M197.47,363.5c7.59-14.86,20-36.75,23.69-68.91,4.34-37.71-9-57.6,1.83-81.54,7.34-16.28,17.82-20.51,30.24-28.28a88.81,88.81,0,0,0,18.83-16c27.07-29.78,41.57-80,27.72-116.41-6.18-16.2-18.29-31.09-34.54-42.8C236.35-11.28,193.43-22.14,151.79-14" transform="translate(0 43.41)"/><path class="cls-41" d="M197,361.45c7.62-14.06,20.76-34.33,25.07-65.71,5-36.62-7.66-56.86,2.75-80.83,7.11-16.36,17.24-20.86,29.07-28.62a85.46,85.46,0,0,0,18-16.25c25.85-30.16,38.66-79.57,24.74-115.66-6.22-16.09-18-31-33.73-42.91-27.78-21-68.91-32.74-107.5-26.55" transform="translate(0 43.41)"/><path class="cls-42" d="M196.48,359.41C204.14,346.13,218,327.49,223,296.9c5.71-35.54-6.37-56.13,3.66-80.13,6.88-16.45,16.66-21.22,27.89-29a81.94,81.94,0,0,0,17.12-16.48c24.64-30.55,35.75-79.1,21.76-114.91-6.26-16-17.76-30.94-32.93-43-26.66-21.25-66-33.79-101.53-29.56" transform="translate(0 43.41)"/><path class="cls-43" d="M196,357.37c7.69-12.49,22.33-29.51,27.86-59.31,6.4-34.45-5.07-55.41,4.58-79.44,6.64-16.53,16.08-21.59,26.72-29.3,5.49-4,10.77-9.43,16.26-16.69,23.42-31,32.84-78.64,18.79-114.17-6.31-15.88-17.51-30.85-32.14-43.14C232.51-6.12,195-19.52,162.48-17.24" transform="translate(0 43.41)"/><path class="cls-44" d="M195.49,355.33c7.72-11.71,23.09-27.09,29.25-56.12,7.06-33.34-3.78-54.67,5.49-78.73,6.41-16.62,15.5-22,25.54-29.64,5.33-4.06,10.27-9.65,15.41-16.92C293.39,142.51,301.1,95.74,287,60.51c-6.34-15.78-17.24-30.77-31.34-43.26-24.43-21.63-60.18-35.89-89.6-35.56" transform="translate(0 43.41)"/><path class="cls-45" d="M195,353.29c7.76-10.92,23.86-24.67,30.64-52.92,7.73-32.24-2.48-54,6.41-78,6.18-16.71,14.91-22.38,24.37-30,5.16-4.15,9.76-9.88,14.55-17.15,21-31.86,27-77.71,12.83-112.66-6.38-15.67-17-30.68-30.53-43.37C229.94-2.64,196-17.77,169.61-19.39" transform="translate(0 43.41)"/><path class="cls-46" d="M194.5,351.25c7.79-10.14,24.62-22.25,32-49.73,8.39-31.13-1.19-53.22,7.34-77.32,5.93-16.79,14.31-22.8,23.18-30.33,5-4.24,9.26-10.1,13.7-17.36,19.76-32.34,24.1-77.25,9.86-111.92C274.17,49,263.88,34,250.86,21.11c-22.2-22-54.37-38-77.68-41.58" transform="translate(0 43.41)"/><path class="cls-47" d="M194,349.21c7.83-9.35,25.38-19.82,33.42-46.53,9-30,.09-52.5,8.25-76.63,5.7-16.87,13.72-23.23,22-30.66,4.84-4.34,8.75-10.33,12.84-17.59C289.05,145,291.71,101,277.4,66.63A145.8,145.8,0,0,0,248.46,23C227.37.88,197-16,176.74-21.55" transform="translate(0 43.41)"/><path class="cls-48" d="M193.5,347.16c7.87-8.56,26.13-17.38,34.81-43.33,9.68-28.91,1.39-51.76,9.17-75.92,5.46-17,11.9-25.24,20.83-31,3.79-5.23,8.24-10.56,12-17.81,17.28-33.34,18.28-76.32,3.9-110.42A159.87,159.87,0,0,0,246.06,25c-20-22.31-48.54-40.11-65.75-47.58" transform="translate(0 43.41)"/><path class="cls-49" d="M193,345.12c7.89-7.77,26.86-14.94,36.2-40.13,10.3-27.81,2.67-51,10.08-75.22C244.52,212.71,250.5,204,259,198.42c3.53-5.37,7.71-10.81,11.13-18,16-33.87,15.37-75.85.92-109.67a178.06,178.06,0,0,0-27.33-43.82C224.78,4.43,198-14.27,183.88-23.7" transform="translate(0 43.41)"/><path class="cls-50" d="M192.51,343.08c7.93-7,27.6-12.51,37.59-36.93,10.92-26.7,4-50.32,11-74.52,5-17.15,10.52-26.25,18.48-31.69,3.28-5.52,7.19-11.06,10.28-18.26,14.74-34.43,12.45-75.39-2.05-108.92a202.62,202.62,0,0,0-26.54-43.95c-17.8-22.59-42.73-42.21-53.83-53.59" transform="translate(0 43.41)"/><path class="cls-51" d="M192,341c8-6.2,28.31-10.07,39-33.74,11.52-25.58,5.23-49.59,11.91-73.81,4.75-17.24,9.84-26.75,17.31-32,3-5.65,6.66-11.3,9.42-18.48,13.44-35,9.54-74.92-5-108.17a235.5,235.5,0,0,0-25.74-44.06C222.17,8,199.05-12.52,191-25.85" transform="translate(0 43.41)"/><path class="cls-52" d="M191.52,339c8-5.41,29-7.64,40.37-30.54,12.12-24.47,6.52-48.87,12.83-73.12,4.51-17.32,9.15-27.24,16.13-32.37,2.78-5.8,6.13-11.55,8.57-18.71,12.11-35.57,6.63-74.45-8-107.42a283.61,283.61,0,0,0-24.93-44.17c-15.63-22.85-36.92-44.32-41.91-59.6" transform="translate(0 43.41)"/><path class="cls-53" d="M191,337c8-4.63,29.73-5.2,41.76-27.35,12.7-23.36,7.81-48.14,13.75-72.41,4.27-17.41,8.46-27.75,15-32.71,2.52-5.94,5.59-11.81,7.71-18.93,10.76-36.17,3.72-74-11-106.68A362.78,362.78,0,0,0,234.08,34.6c-14.56-23-34-45.38-35.94-62.61" transform="translate(0 43.41)"/><path class="cls-54" d="M190.53,334.91c8.07-3.83,30.41-2.77,43.15-24.14,13.26-22.26,9.08-47.43,14.66-71.71,4-17.51,7.78-28.25,13.78-33.06,2.27-6.07,5.05-12.06,6.86-19.15,9.38-36.77.81-73.53-14-105.93-6.75-14.72-14.7-29.63-23.34-44.4-13.49-23.06-31.1-46.42-30-65.61" transform="translate(0 43.41)"/><path class="cls-55" d="M190,332.87c8.1-3.05,31.08-.34,44.54-20.95,13.82-21.15,10.36-46.7,15.58-71,3.78-17.6,7.09-28.76,12.61-33.4,2-6.22,4.49-12.32,6-19.38,8-37.37-2.1-73.06-16.94-105.17-6.78-14.63-14.47-29.5-22.54-44.52-12.44-23.16-28.19-47.48-24-68.61" transform="translate(0 43.41)"/><path class="cls-56" d="M189.54,330.83c8.13-2.26,31.74,2.07,45.93-17.75,14.36-20.07,11.63-46,16.49-70.3,3.54-17.69,6.4-29.26,11.43-33.74,1.76-6.36,3.94-12.58,5.15-19.61,6.51-38-5-72.59-19.91-104.42-6.83-14.52-14.25-29.36-21.74-44.63C215.48,17.12,201.6-8.15,208.83-31.24" transform="translate(0 43.41)"/><path class="cls-57" d="M189,328.79c8.17-1.48,32.39,4.48,47.32-14.55s12.91-45.26,17.41-69.61c3.29-17.77,5.72-29.75,10.25-34.08,1.52-6.5,3.38-12.83,4.3-19.82,5-38.59-7.93-72.13-22.89-103.68-6.87-14.41-14-29.21-20.94-44.74C214.11,19,202.11-7.28,212.4-32.32" transform="translate(0 43.41)"/><path class="cls-58" d="M188.54,326.75c8.21-.69,33,6.88,48.71-11.36,15.41-17.92,14.19-44.53,18.34-68.9,3-17.87,5-30.26,9.07-34.42,1.26-6.64,2.81-13.09,3.44-20,3.51-39.18-10.84-71.67-25.87-102.93C235.32,74.78,228.4,60,222.09,44.23,212.73,20.8,202.62-6.4,216-33.39" transform="translate(0 43.41)"/><path class="cls-59" d="M188.05,324.71c8.24.1,33.66,9.26,50.1-8.16,15.92-16.87,15.45-43.81,19.25-68.2,2.79-18,4.34-30.76,7.89-34.76,1-6.78,2.24-13.35,2.59-20.28,2-39.77-13.75-71.2-28.84-102.18a426.47,426.47,0,0,1-19.35-45c-8.35-23.52-16.56-51.69-.16-80.63" transform="translate(0 43.41)"/><path class="cls-60" d="M187.55,322.66c8.28.89,34.28,11.63,51.49-5,16.42-15.82,16.73-43.09,20.17-67.49,2.54-18.05,3.65-31.26,6.72-35.11.75-6.92,1.66-13.59,1.73-20.49C268,154.26,251,123.87,235.84,93.18A304.91,304.91,0,0,1,217.3,48.09c-7.37-23.61-13.66-52.75,5.8-83.64" transform="translate(0 43.41)"/><path class="cls-61" d="M187.05,320.62c8.31,1.68,34.9,14,52.89-1.76,16.91-14.8,18-42.37,21.08-66.79,2.29-18.15,3-31.77,5.54-35.45a204.39,204.39,0,0,0,.87-20.72c-1.24-40.91-19.56-70.27-34.79-100.68A236.66,236.66,0,0,1,214.9,50c-6.39-23.7-10.75-53.79,11.76-86.63" transform="translate(0 43.41)"/><path class="cls-62" d="M186.56,318.58c8.34,2.46,35.5,16.3,54.27,1.43,17.41-13.78,19.26-41.64,22-66.09,2-18.23,2.28-32.26,4.37-35.78a200.56,200.56,0,0,0,0-20.95c-2.89-41.45-22.47-69.81-37.77-99.93-7.07-13.89-13.1-28.48-16.94-45.32-5.42-23.79-7.84-54.85,17.73-89.64" transform="translate(0 43.41)"/><path class="cls-63" d="M186.06,316.54c8.38,3.25,36.11,18.61,55.67,4.63,17.9-12.8,20.52-40.92,22.91-65.39,1.79-18.32,1.59-32.77,3.19-36.13a194.7,194.7,0,0,0-.84-21.17c-4.57-42-25.39-69.34-40.74-99.18C219.14,85.52,213.3,71,210.11,53.87,205.64,30,205.17-2,233.79-38.78" transform="translate(0 43.41)"/><path class="cls-64" d="M185.57,314.5c8.41,4,36.7,20.9,57.05,7.82,18.4-11.82,21.79-40.19,23.83-64.68,1.53-18.41.9-33.27,2-36.47a191.93,191.93,0,0,0-1.7-21.39c-6.27-42.46-28.3-68.88-43.72-98.44-7.15-13.68-12.8-28.19-15.34-45.54-3.52-24-2-57,29.65-95.66" transform="translate(0 43.41)"/><path class="cls-65" d="M185.07,312.46c8.45,4.82,37.32,23.16,58.44,11,18.91-10.86,23-39.47,24.75-64,1.25-18.51.63-33.72.84-36.81.53-7.63-1.27-14.79-2.55-21.62-8-42.93-31.21-68.41-46.7-97.68-7.19-13.58-12.65-28.07-14.54-45.67-2.58-24.12.89-58,35.61-98.65" transform="translate(0 43.41)"/><path class="cls-66" d="M184.57,310.41c8.49,5.61,37.93,25.42,59.84,14.23,19.41-9.93,24.29-38.75,25.66-63.28a339.86,339.86,0,0,0-.33-37.16c-.2-7.8-1.87-15-3.41-21.84-9.73-43.37-34.12-67.94-49.67-96.93C209.42,92,204.13,77.49,202.91,59.65,201.26,35.41,206.71.59,244.49-42" transform="translate(0 43.41)"/><path class="cls-67" d="M184.08,308.37c8.51,6.4,38.55,27.65,61.22,17.42C280.41,310,271.18,232,270.37,225.72c-10.57-82.17-68-101.2-69.85-164.14-.74-24.38,6.7-60.12,47.54-104.67" transform="translate(0 43.41)"/><path class="cls-68" d="M247.37-42.28c-38.64,43.32-45,78.34-43.8,102.54,1.65,34.24,19.33,55.55,36.63,81.49,14,21.05,28.51,44.9,31.84,81,.65,7.12,8.4,82.73-25.51,98.84-23.95,11.37-55.44-9.15-64-15.39" transform="translate(0 43.41)"/><path class="cls-69" d="M246.69-41.48C210.24.62,205,34.92,206.63,59c2.23,33.59,19.57,54.77,36.39,80.57,13.72,21,28.46,44.75,30.68,80.3.5,8,6.81,81.33-25.95,97.6C222.51,330,189.59,310.15,181,304.07" transform="translate(0 43.41)"/><path class="cls-70" d="M246-40.67C211.75.19,207.65,33.78,209.69,57.63c2.8,32.94,19.77,54,36.14,79.66,13.45,21.06,28.22,44.63,29.53,79.57.34,8.84,5.25,80-26.39,96.38-26.54,13.71-60.88-5.4-69.46-11.32" transform="translate(0 43.41)"/><path class="cls-71" d="M245.33-39.87c-32.07,39.64-35.06,72.5-32.59,96.19,3.37,32.29,20,53.28,35.9,78.73,13.19,21.08,27.82,44.56,28.39,78.86.16,9.71,3.71,78.8-26.83,95.14-27.86,14.91-63.61-3.52-72.21-9.28" transform="translate(0 43.41)"/><path class="cls-72" d="M244.65-39.06C214.77-.66,212.88,31.47,215.8,55c3.92,31.63,20.18,52.54,35.66,77.82,12.91,21.09,27.29,44.48,27.23,78.14,0,10.58,2.21,77.63-27.27,93.91-29.18,16.11-66.33-1.65-74.95-7.25" transform="translate(0 43.41)"/><path class="cls-73" d="M244-38.26c-27.69,37.18-28.48,68.57-25.11,91.95,4.46,31,20.38,51.79,35.41,76.9C266.91,151.7,281,175,280.36,208c-.21,11.46.72,76.52-27.72,92.68-30.5,17.32-69.06.21-77.69-5.22" transform="translate(0 43.41)"/><path class="cls-74" d="M243.29-37.45c-25.5,36-25.2,66.6-21.38,89.82,5,30.31,20.58,51.05,35.17,76,12.37,21.13,26,44.35,24.94,76.7-.41,12.34-.74,75.45-28.15,91.44-31.83,18.56-71.79,2.09-80.44-3.18" transform="translate(0 43.41)"/><path class="cls-75" d="M242.61-36.65C219.3-1.93,220.68,28,225,51.06c5.51,29.63,20.78,50.31,34.93,75.06,12.09,21.16,25.26,44.3,23.78,76-.61,13.22-2.17,74.42-28.59,90.21-33.16,19.8-74.51,4-83.19-1.15" transform="translate(0 43.41)"/><path class="cls-76" d="M241.93-35.84C220.8-2.35,223.27,26.82,228,49.74c6,29,21,49.58,34.68,74.15,11.82,21.18,24.47,44.24,22.64,75.27-.84,14.1-3.6,73.43-29,89-34.48,21.07-77.23,5.84-85.93.89" transform="translate(0 43.41)"/><path class="cls-77" d="M241.25-35c-18.94,32.26-15.4,60.7-10.17,83.47,6.51,28.29,21.17,48.84,34.44,73.23,11.55,21.2,23.65,44.18,21.49,74.54-1.07,15-5,72.48-29.47,87.75-35.8,22.34-80,7.71-88.68,2.92" transform="translate(0 43.41)"/><path class="cls-78" d="M240.57-34.23c-16.75,31-12.15,58.72-6.43,81.34,7,27.63,21.35,48.11,34.2,72.31,11.26,21.23,22.78,44.12,20.33,73.83-1.3,15.88-6.39,71.54-29.91,86.51-37.12,23.64-82.68,9.59-91.42,5" transform="translate(0 43.41)"/><path class="cls-79" d="M239.89-33.43C225.33-3.62,231,23.32,237.19,45.8c7.46,27,21.55,47.37,34,71.39,11,21.26,21.89,44.06,19.19,73.11-1.57,16.76-7.78,70.62-30.36,85.28-38.42,24.95-85.41,11.46-94.16,7" transform="translate(0 43.41)"/><path class="cls-80" d="M239.21-32.62c-12.37,28.57-5.68,54.76,1,77.1C248.16,70.77,262,91.12,274,115c10.7,21.28,21,44,18,72.39-1.83,17.64-9.14,69.73-30.79,84-39.73,26.28-88.14,13.34-96.91,9" transform="translate(0 43.41)"/><path class="cls-81" d="M238.53-31.82c-10.18,27.35-2.46,52.79,4.78,75,8.35,25.61,21.91,45.91,33.47,69.56,10.42,21.31,20.05,43.92,16.88,71.67-2.11,18.52-10.5,68.85-31.23,82.81-41,27.62-90.86,15.21-99.66,11.06" transform="translate(0 43.41)"/><path class="cls-82" d="M237.85-31c-8,26.11.76,50.82,8.51,72.86,8.78,24.95,22.1,45.19,33.23,68.64,10.13,21.35,19.11,43.86,15.74,71-2.42,19.4-11.85,68-31.67,81.58-42.3,29-93.59,17.08-102.41,13.09" transform="translate(0 43.41)"/><path class="cls-83" d="M237.17-30.21c-5.8,24.89,4,48.85,12.25,70.75,9.19,24.28,22.27,44.46,33,67.72,9.84,21.38,18.14,43.79,14.58,70.23-2.73,20.28-13.18,67.15-32.11,80.35-43.56,30.38-96.31,19-105.15,15.13" transform="translate(0 43.41)"/><path class="cls-84" d="M236.49-29.4c-3.61,23.65,7.15,46.88,16,68.63C262.07,62.85,274.93,83,285.22,106c9.55,21.41,17.17,43.71,13.43,69.51-3.06,21.15-14.51,66.31-32.55,79.12-44.8,31.8-99,20.83-107.89,17.17" transform="translate(0 43.41)"/><path class="cls-85" d="M235.8-28.6c-1.41,22.43,10.35,44.92,19.73,66.51,10,23,22.63,43,32.5,65.89,9.26,21.44,16.19,43.62,12.29,68.79-3.42,22-15.84,65.49-33,77.88-46,33.25-101.77,22.7-110.64,19.21" transform="translate(0 43.41)"/><path class="cls-86" d="M235.12-27.8c.78,21.21,13.52,43,23.47,64.4,10.37,22.32,22.79,42.28,32.26,65,9,21.48,15.19,43.55,11.13,68.08-3.78,22.88-17.15,64.68-33.43,76.65C221.33,281,164.06,270.86,155.17,267.53" transform="translate(0 43.41)"/><path class="cls-87" d="M234.44-27c3,20,16.68,41,27.21,62.27,10.73,21.68,23,41.56,32,64.05,8.66,21.51,14.19,43.46,10,67.36-4.17,23.74-18.45,63.87-33.87,75.41-48.39,36.25-107.21,26.45-116.13,23.28" transform="translate(0 43.41)"/><path class="cls-88" d="M233.76-26.19C238.92-7.44,253.58,12.88,264.7,34s23.13,40.84,31.77,63.13c8.36,21.55,13.18,43.36,8.84,66.64-4.6,24.59-19.76,63.07-34.31,74.18-49.53,37.81-109.94,28.32-118.88,25.31" transform="translate(0 43.41)"/><path class="cls-89" d="M233.08-25.38c7.35,17.51,23,37.13,34.68,58,11.44,20.41,23.29,40.12,31.53,62.22,8,21.58,12.16,43.26,7.68,65.91-5,25.44-21.05,62.29-34.75,73-50.62,39.41-112.66,30.19-121.62,27.34" transform="translate(0 43.41)"/><path class="cls-90" d="M232.4-24.58c9.54,16.29,26.09,35.21,38.42,55.92,11.78,19.79,23.44,39.4,31.28,61.29,7.75,21.63,11.15,43.17,6.53,65.2-5.5,26.28-22.33,61.5-35.19,71.72-51.66,41.08-115.38,32.07-124.36,29.38" transform="translate(0 43.41)"/><path class="cls-91" d="M231.72-23.77C243.45-8.71,260.92,9.52,273.87,30,286,49.21,297.47,68.71,304.92,90.4s10.12,43,5.38,64.48c-6,27.11-23.62,60.72-35.63,70.49C222,268.18,156.55,259.31,147.56,256.78" transform="translate(0 43.41)"/><path class="cls-92" d="M231-23C245-9.14,263.35,8.42,276.93,28.71c12.44,18.58,23.75,38,30.8,59.46,7.12,21.71,9.09,42.94,4.23,63.76-6.52,27.93-24.89,59.94-36.07,69.25C222.33,265.8,155.05,257,146,254.63" transform="translate(0 43.41)"/><path class="cls-93" d="M230.36-22.16C246.47-9.56,265.76,7.33,280,27.39c12.77,18,23.91,37.25,30.56,58.55,6.8,21.75,8.06,42.81,3.09,63-7.08,28.73-26.17,59.17-36.52,68-54.39,46.52-123.56,37.69-132.6,35.48" transform="translate(0 43.41)"/><path class="cls-94" d="M229.68-21.36C248-10,268.16,6.26,283,26.08c13.08,17.41,24,36.53,30.32,57.62,6.47,21.79,7,42.69,1.93,62.33-7.66,29.53-27.42,58.39-37,66.78C223.23,261.34,152.05,252.38,143,250.33" transform="translate(0 43.41)"/><path class="cls-95" d="M229-20.55c20.49,10.14,41.56,25.76,57.1,45.31,13.39,16.85,24.19,35.82,30.07,56.71,6.15,21.83,6,42.55.78,61.6-8.28,30.32-28.67,57.63-37.39,65.56-55.69,50.66-129,41.44-138.09,39.55" transform="translate(0 43.41)"/><path class="cls-96" d="M228.32-19.75c22.68,8.92,44.62,23.92,60.83,43.2C302.86,39.74,313.48,58.54,319,79.24a112.62,112.62,0,0,1-.36,60.88c-9,31.08-29.92,56.85-37.84,64.32C224.68,257.4,149.05,247.76,140,246" transform="translate(0 43.41)"/><path class="cls-97" d="M227.64-18.94c24.87,7.68,47.68,22.09,64.57,41.07,14,15.75,24.46,34.38,29.59,54.87a111.54,111.54,0,0,1-1.52,60.17C310.62,169,289.13,193.25,282,200.26c-56.29,55.44-134.47,45.18-143.58,43.62" transform="translate(0 43.41)"/><path class="cls-98" d="M227-18.14C276.08-6.42,314,29.58,324.61,74.77,339.39,137.94,293,186,283.23,196.08c-56.18,58.16-137.19,47-146.32,45.65" transform="translate(0 43.41)"/></g><path class="cls-99" d="M305.45,247.46c.34-.56.67-1.13,1-1.71-.08.15-.16.3-.25.45Q305.84,246.83,305.45,247.46Z" transform="translate(0 43.41)"/></g></g></svg>