<svg xmlns="http://www.w3.org/2000/svg" xmlns:xlink="http://www.w3.org/1999/xlink" viewBox="0 0 243.23 311.01"><defs><style>.cls-1,.cls-9{fill:none;}.cls-2{fill:#52c0e2;}.cls-3{fill:#4db6d6;}.cls-4{fill:#00d2e8;}.cls-5{clip-path:url(#clip-path);}.cls-6{fill:#33c6f4;}.cls-7{fill:#1b447e;}.cls-8{fill:#fff;}.cls-9{stroke:#221e1f;stroke-miterlimit:10;stroke-width:3.13px;}</style><clipPath id="clip-path"><circle class="cls-1" cx="190.34" cy="258.69" r="50.75"/></clipPath></defs><g id="Layer_2" data-name="Layer 2"><g id="Layer_1-2" data-name="Layer 1"><path class="cls-2" d="M39.34,94h56V0L65.43,0c-.72,0-1.44.13-2.56.24V4.41c0,11.85,0,23.7,0,35.55C62.84,54,54.14,62.79,40,62.88c-11.23.08-22.46,0-33.68,0H0v4.39q0,80.27,0,160.53c0,14.12,8.68,22.87,22.84,22.88q36.24,0,72.48,0V213a10.45,10.45,0,0,1-1.41.09q-28,0-56.06,0c-4.31,0-6.47-1.75-6.44-5s2.21-4.89,6.53-4.9q14,0,28,0t28,0a11.14,11.14,0,0,1,1.32.08V140.36c-9.17,0-18.33,0-27.5,0H37.94c-4.34,0-6.49-1.65-6.52-4.91s2.15-5,6.44-5q28.72,0,57.47,0V104.14H39.48c-5.68,0-8-1.46-8-5S33.74,94,39.34,94Zm-1.48,72.73q22.26-.06,44.53,0c4.51,0,6.81,1.85,6.72,5.19-.08,3.18-2.35,4.92-6.61,4.94-7.49,0-15,0-22.46,0s-14.71,0-22.07,0c-4.22,0-6.5-1.83-6.54-5S33.64,166.75,37.86,166.74Z"/><path class="cls-3" d="M190.63,227.9c0,14.16-8.75,22.79-23,22.8q-36.16,0-72.34,0V213c3.28-.39,5-2.21,5-5s-1.83-4.36-5-4.72V140.36h2.38c4.29,0,6.45-1.73,6.43-5s-2.15-4.93-6.51-4.93h-2.3V104.14q11.92,0,23.84,0a21.93,21.93,0,0,0,3.72-.2A4.67,4.67,0,0,0,127.1,99c0-2.69-1.7-4.36-4.34-4.86a17.77,17.77,0,0,0-3.35-.12H95.33V0q36.89,0,73.77.06c11.74,0,20.39,8.09,21.33,19.33a6.65,6.65,0,0,1-.58,3.54c-5.17,9.51-10.62,18.86-15.65,28.44q-27.13,51.6-54,103.36A26.77,26.77,0,0,0,117.32,165c-.89,13.94-1.38,27.9-1.94,41.86-.26,6.42,2.32,11.5,8.05,14.51s11.36,2.31,16.5-1.58c11.54-8.72,23.11-17.41,34.51-26.31a21.12,21.12,0,0,0,5.09-6.33c3.57-6.39,6.85-12.95,10.73-20.36.2,1.8.37,2.65.37,3.5C190.65,189.49,190.69,208.69,190.63,227.9Z"/><path class="cls-4" d="M172.37,179.2l-42.21-22,46.73-89.42L219.1,89.79Z"/><path class="cls-4" d="M223.55,80.65,181.77,58.81c.6-1.28,1.07-2.38,1.62-3.44,3.85-7.4,7.55-14.88,11.63-22.16A23.75,23.75,0,0,1,237.23,55c-4,8.3-8.45,16.37-12.71,24.53A9.92,9.92,0,0,1,223.55,80.65Z"/><path class="cls-3" d="M52.73,4.39c0,.64.14,1.58.14,2.53,0,11.08.05,22.16,0,33.24,0,8.32-4.42,12.62-12.74,12.64-11.08,0-22.16,0-33.24,0H4.36Z"/><path class="cls-4" d="M127.17,166.84,166,187.08c-.91.82-1.57,1.48-2.3,2-9.6,7.33-19.23,14.63-28.81,22-2.1,1.61-4.57,3.08-6.71,1.19a8.74,8.74,0,0,1-2.52-6C125.93,193.35,126.6,180.43,127.17,166.84Z"/><line class="cls-1" x1="95.33" y1="212.99" x2="95.33" y2="203.25"/><line class="cls-1" x1="95.33" y1="140.36" x2="95.33" y2="130.43"/><line class="cls-1" x1="95.33" y1="104.14" x2="95.33" y2="94.01"/><g id="Layer_2-2" data-name="Layer 2"><g id="Layer_1-3" data-name="Layer 1"><g class="cls-5"><circle class="cls-6" cx="190.34" cy="258.69" r="50.75"/><path class="cls-7" d="M242.59,279.69c-23.33-10.49-47.35-40-49.37-41.31s-4.74.33-4.74.33c-1.69-2.7-4.39.34-4.39.34-12.52,21.31-46,41.65-46,41.65s16.08,29.58,53.25,29.58C229.12,310.28,242.59,279.69,242.59,279.69Z"/><path class="cls-8" d="M167.51,257.32s6.76-3.06,5.41,2-6.77,12.51-5.08,12.85,6.45-4.4,7.79-3.73,2.36.35,1.69,2.71-1.36,4.06,0,4.06,2.37-3.06,4.06-6.09,4.39-1.69,5.41-.68,4.06,6.77,6.42,6.1,3.72-3.73,2.71-10.49.68-8.79.68-8.79,2-1,5.75,3.72,10.48,11.83,11.49,11.5-4.73-7.78-3.38-8.46,6.76,1,9.47,3.38c0,0,.93,3.88.93.16l-27.65-27.21-4.73.33-4.4.34S173.26,255.29,167.51,257.32Z"/><path class="cls-9" d="M242.59,280.7c-23.33-10.48-47.35-41-49.37-42.32s-4.74.33-4.74.33c-1.69-2.7-4.39.34-4.39.34-12.52,21.31-46,41.65-46,41.65"/></g><circle class="cls-9" cx="190.34" cy="258.69" r="50.75"/></g></g></g></g></svg>